<svg id="Layer_2" data-name="Layer 2" xmlns="http://www.w3.org/2000/svg" viewBox="0 0 102.12 124"><defs><style>.cls-1,.cls-2{fill:#ff5277;stroke-width:0}.cls-2{fill:#fff}</style></defs><g id="Livello_1" data-name="Livello 1"><path style="fill:#191917;stroke-width:0" d="M94.82 14.59v-7.3h-7.29V0H14.59v7.29h-7.3v7.3H0V87.53h7.29v21.88h7.3v-.27 7.57h7.29V124H87.53v-7.29h7.29V87.53h7.3V14.59h-7.3z"/><path class="cls-1" d="M43.76 51.06h7.29v7.29h-7.29zM80.24 51.06h7.29v7.29h-7.29z"/><path class="cls-2" d="M87.53 21.88v-7.29h-7.29v-7.3H21.88v7.3h7.3v14.59h7.29v14.58h58.35V21.88h-7.29zM65.65 58.35h7.29v7.29h-7.29z"/><path class="cls-2" d="M80.24 80.24h7.29v-7.3h7.29V58.35h-7.29v7.3h-14.6v14.59H58.35V65.65H36.47v-7.3h-7.29v14.59H43.76v14.59h7.3v7.29h29.18V80.24zM36.47 94.82h7.29v7.29h-7.29zM14.59 14.59h7.29v7.29h-7.29zM7.29 29.28v50.96h7.3V21.88h-7.3v7.4zM14.59 95v7.12h7.29V80.24h-7.29V95zM21.88 102.12h7.29v7.29h-7.29z"/><path class="cls-2" d="M36.55 116.71h43.69v-7.3h7.29V94.82h-7.29v7.3H43.76v7.29H29.18v7.3h7.37z"/></g></svg>